<?xml version="1.0" standalone="no"?>
<!DOCTYPE svg PUBLIC "-//W3C//DTD SVG 20010904//EN"
 "http://www.w3.org/TR/2001/REC-SVG-20010904/DTD/svg10.dtd">
<svg version="1.0" xmlns="http://www.w3.org/2000/svg"
 width="512.000000pt" height="512.000000pt" viewBox="0 0 512.000000 512.000000"
 preserveAspectRatio="xMidYMid meet">
<metadata>
Created by potrace 1.11, written by Peter Selinger 2001-2013
</metadata>
<g transform="translate(0.000000,512.000000) scale(0.100000,-0.100000)"
fill="#000000" stroke="none">
<path d="M2378 5115 c-2 -1 -34 -5 -73 -8 -378 -33 -803 -183 -1140 -405 -163
-107 -258 -184 -401 -326 -420 -418 -658 -897 -746 -1506 -13 -94 -17 -443 -6
-560 65 -682 418 -1327 963 -1759 349 -278 765 -457 1220 -527 179 -27 558
-27 725 0 122 20 168 29 255 51 565 139 1065 468 1426 940 240 313 432 762
485 1135 2 19 6 44 9 55 19 94 27 459 13 605 -15 147 -44 304 -79 424 -12 38
-22 76 -24 85 -15 69 -110 296 -181 431 -322 611 -892 1077 -1555 1269 -108
31 -265 64 -358 76 -30 4 -63 9 -75 12 -23 5 -452 13 -458 8z"/>
</g>
</svg>
